<?xml version="1.0" encoding="utf-8"?>
<!-- Generator: Adobe Illustrator 17.1.0, SVG Export Plug-In . SVG Version: 6.00 Build 0)  -->
<!DOCTYPE svg PUBLIC "-//W3C//DTD SVG 1.1//EN" "http://www.w3.org/Graphics/SVG/1.1/DTD/svg11.dtd">
<svg version="1.1" id="Ebene_1" xmlns="http://www.w3.org/2000/svg" xmlns:xlink="http://www.w3.org/1999/xlink" x="0px" y="0px"
	 viewBox="0 0 600 400" enable-background="new 0 0 600 400" xml:space="preserve">
<g>
	<path fill="#B1B4B5" d="M454.3,56.2c-7.1,0-12.6,5.5-12.6,12.6c0,4.7,2.4,8.7,6,10.8c0,0,0,0.1,0,0.1v8.8c0,0,0,0.5,0,1.1
		c0,0.5,0,0.5,0,0.5c0,39.5-18.6,71.3-63.6,71.3s-64.3-32.4-64.3-71.3v-1.1c0-0.5,0-0.5,0-1.1v-7.8c4.3-2,7.1-6.3,7.1-11.4
		c0-7.1-5.5-12.6-12.6-12.6s-12.6,5.5-12.6,12.6c0,5.6,3.4,10.1,8.2,11.9v7.9v0.5c0,0.5,0,0.5,0,0.5c0,45,24.2,81.2,74.2,81.2
		s73.4-36.8,73.4-80.1v-0.5c0-0.5,0-0.5,0-0.5V81c5.5-1.4,9.3-6.2,9.3-12.2C466.9,61.7,461.4,56.2,454.3,56.2z M314.3,65.5
		c1.6,0,3.3,1.6,3.3,3.3c0,1.6-1.1,3.3-3.3,3.3c-1.6,0-3.3-1.6-3.3-3.3C311.1,67.2,312.7,65.5,314.3,65.5z M454.3,65.5
		c1.6,0,3.3,1.6,3.3,3.3c0,1.6-1.6,3.3-3.3,3.3c-1.6,0-3.3-1.6-3.3-3.3C450.4,67.2,452.1,65.5,454.3,65.5z"/>
	<path fill="#B1B4B5" d="M558.7,385.7l0-4.3L556.9,9.6c0-3.3-2.7-4.9-4.9-4.9H216.8c-2.7,0-4.9,2.7-4.9,4.9l-6.2,131.2h-7.9
		c-4.9,0-8.8,3.9-8.8,8.8v9.2c0,4,2.6,7.3,6.3,8.4c-0.1,0.4-0.1,0.8-0.1,1.3V197L172,238.1l-0.1,0.1l-0.2,0.3
		c-2.8,4.4-4.7,7.6-4.7,11.2v46.8c-2.4-0.9-5-1.6-7.4-2l-1.7-0.4c1.3-3.9,2.5-6,2.5-6.1c1.5-2.6,1.3-5.9-0.6-8.3l-4.8-6
		c-1.4-1.7-3.5-2.8-5.7-2.8l-0.1,0c-2.3,0-4.4,1.1-5.7,2.9c-4.5,5.8-7.6,11.6-9.9,18.6c-15.9,1.9-25.4,6.6-25.8,6.9
		c-2.6,1.3-4.2,4.1-4,7.1c0.1,1.1,0.4,2.2,0.9,3.1c-9.8,9.3-15.4,22.1-15.4,35.4c0,0,0,0.1,0,0.1c-3.6-3.9-8.2-7.8-14.6-7.9
		c-0.4-0.5-1-1-1.5-1.4c-2.3-1.6-5-2.5-7.6-2.5c-1.2,0-2.4,0.2-3.5,0.5c-0.7-2.2-1.1-5.4-0.6-10c0.1-0.4,0.1-0.9,0.1-1.3
		c0-4.6-3.6-8.4-8.1-8.8c-0.2,0-0.5,0-0.7,0c-0.2,0-0.4,0-0.7,0c-1.6,0.1-3.1,0.7-4.3,1.5c-0.6,0.4-1.2,0.9-1.7,1.5
		c-0.2,0.2-0.3,0.4-0.5,0.6c-2.1,2.9-3.5,6.9-4.1,12.1c-0.3,2.1-0.9,10.5,5,19.7l-0.7,1.7c-0.1,0.2-0.2,0.5-0.2,0.7
		c-1.2,4.1,0.2,8.6,3.8,12.2c0.5,0.5,1.1,1,1.7,1.4c1.6,8.4,9.4,13.2,13.1,15.5c0.4,0.2,0.7,0.4,1,0.6c0.2,0.1,0.3,0.2,0.5,0.3
		c2.5,1.4,25.4,13.8,45.6,13.8c3.3,0,6.4-0.3,9.2-0.9c1.2-0.2,3.5-0.7,6.1-1.4c4.8,1.4,10,2.2,15.3,2.2c10.6,0,20.4-3,28.7-8.1
		c0,0,0,0,0.1,0.1c2.3,2.3,5.4,3.6,8.7,3.6h19.5c0.1,0,0.3,0,0.4,0h143.9c2,0.1,4,0.2,6.1,0.2h86.4c2.1,0,4.1-0.1,6.1-0.2h111.6l0,0
		c0.1,0,0.1,0,0.2,0c3.3,0,5-1.7,5-4.4L558.7,385.7L558.7,385.7z M197.8,149.6h30.1v9.2h-30.1V149.6z M137.3,301l3-0.3l0.8-2.9
		c1.9-6.6,4.4-11.9,8.1-17l3.1,3.9c-0.9,1.7-2.7,5.8-4.3,11.8l-1.1,4.4l10.9,2.4l0.4,0.1c4.8,0.6,10.5,3.4,14,5.4l-14.7,2.9
		l2.3,15.4l-16.4-12.5l-16.5,12.6l1.9-16.3l-9.8-3.5l-4.2-1.5C119.1,304.3,126.8,301.9,137.3,301z M112.6,314.3l3.7,1.3l3.2,1.1
		l-1.5,12.7c-0.3,3,1.1,5.8,3.7,7.3c1.1,0.6,2.4,1,3.6,1c1.6,0,3.2-0.5,4.5-1.5l13.8-10.6l13.8,10.6c1.3,1,2.9,1.5,4.5,1.5
		c1.3,0,2.6-0.4,3.8-1c2.6-1.5,4-4.5,3.5-7.5l-1.6-10.6l6.9-1.4c7.3,7.6,11.4,17.5,11.4,27.8c0,22.7-19.4,41.1-43.4,41.4
		c1.6-1.1,2.9-2.2,4.1-3.4c2.1-2.2,2.8-5.4,2-8.3c-0.8-2.9-3.1-5.3-6-6.1l-0.3-0.1c-0.4-0.1-0.8-0.2-1.2-0.3c-1-0.2-2.2-0.2-3.8-0.2
		c-0.8,0-1.7,0-2.6,0.1c-0.3,0-0.6,0-1,0c-7.3,0-15.4-3.5-24-7.1c-4-1.7-7.6-4.1-10.4-6.2c-0.8-3.1-1.2-6.3-1.2-9.7
		C98.1,333.3,103.4,322.1,112.6,314.3z M55.6,357.6c-2.1-2.1-1.5-3.6-1.5-3.6c0,0,0,0,0,0l2.3-6.2l-0.8-1.1
		c-6.4-8-5.4-15.7-5.3-16.1c0.6-4.6,1.6-7,2.5-8.1c-1.9,15.1,4.8,21.2,5.1,21.4l1.2,1.1l4.5-2.4c0.7-0.4,1.3-0.5,1.9-0.5
		c1,0,1.9,0.4,2.6,0.9c-0.5,0.3-1,0.5-1.4,0.9c-2.1,1.4-4.1,3.3-6.4,5.8C58,352.4,56.4,355.1,55.6,357.6z M69.9,373.9
		c-0.3-0.2-0.7-0.4-1.1-0.7c-3.2-2-8.4-5.2-9.2-9.9c-0.5-3,1-6.5,4.2-10.4c1.9-2.2,3.7-3.8,5.4-5c1.9-1.3,3.6-1.9,5.2-1.9
		c3.5,0,6.4,2.9,10.1,7c0.9,0.9,1.7,1.9,2.5,2.7c0.1,0.2,1.8,1.9,4.5,4.1v0c0,0,0,0,0,0c0.4,0.3,0.9,0.7,1.3,1.1c0,0,0.1,0,0.1,0.1
		c0.4,0.4,0.9,0.7,1.4,1.1c0,0,0.1,0,0.1,0.1c0.5,0.4,1,0.8,1.6,1.1c0,0,0,0,0,0c0.6,0.4,1.1,0.8,1.8,1.2c0,0,0,0,0.1,0
		c0.6,0.4,1.2,0.8,1.8,1.1c0.1,0,0.1,0.1,0.2,0.1c0.6,0.4,1.2,0.7,1.8,1c0.1,0,0.1,0.1,0.2,0.1c0.6,0.3,1.3,0.7,1.9,1
		c0.1,0,0.1,0.1,0.2,0.1c0.7,0.3,1.4,0.7,2.2,1c0,0,0,0,0,0l0,0c9.4,4,18.3,7.9,27.4,7.9c0.4,0,0.9,0,1.3,0c0.9,0,1.7-0.1,2.3-0.1
		c1.4,0,2.1,0.1,2.5,0.1l0.3,0.1c-0.7,0.7-1.5,1.4-2.6,2.1l0,0c-3.1,2.1-7.2,3.6-10.7,4.7l0,0c-3.5,1.1-6.5,1.7-7.6,1.9c0,0,0,0,0,0
		c-0.1,0-0.1,0-0.2,0c0,0,0,0,0,0c-0.1,0-0.1,0-0.1,0c0,0,0,0,0,0c0,0-0.1,0-0.1,0c-0.6,0.1-1.1,0.2-1.7,0.3c-0.2,0-0.4,0.1-0.7,0.1
		c-0.3,0-0.7,0.1-1,0.1c-0.3,0-0.6,0.1-0.8,0.1c-0.3,0-0.6,0-0.9,0.1c-0.3,0-0.6,0-0.9,0c-0.5,0-1,0-1.5,0
		C92.4,386.6,70.1,374,69.9,373.9z M177.9,381.6c10.3-9.2,16.7-22.2,16.7-36.6c0-11.7-4.3-23-12.1-31.9c0.4-0.7,0.7-1.5,0.9-2.3
		c0.6-3-0.7-6-3.3-7.6c-0.4-0.3-2-1.3-4.3-2.5v-50.8c0-1.3,1.9-4.3,3.3-6.5l0.3-0.5l0.2-0.3L203,201l0.9-1.7v-1.9v-28.9h17.6v28.9
		v1.8l1,1.7l24,42.6l0.2,0.3l0.4,0.7c1.2,1.9,2.6,4,2.6,5.3v5.6h-35.2h-3.6v3.6v93.4v3.6h3.6h35.2v22.4c0,1-0.4,1.9-1,2.5
		c-0.6,0.6-1.5,1-2.5,1h-66.9C178.9,382,178.4,381.8,177.9,381.6z M278.9,233.2v-8.4h32.7v8.4l15.9,31.6c0.5,1.1,1.2,2.2,1.9,3.3
		l0.2,0.4c0.6,1.1,1.8,3.1,2.2,3.9v43.2c-18.5,9.5-30.4,22.9-30.4,37.3v0.8c0,12.1,5.1,21.8,14.3,28.3h-56.8V272.4
		c0.3-0.9,1.5-2.8,2.2-3.9l0.2-0.4c0.7-1.2,1.3-2.3,1.9-3.3l14.8-29.4L278.9,233.2z M270.1,215.9h-0.3c-0.4,0-0.6-0.2-0.7-0.3
		c-0.1-0.1-0.3-0.4-0.3-0.8v-12c0-0.3,0.1-0.5,0.2-0.6l0.1-0.1c0.2-0.2,0.4-0.3,0.8-0.3h51c0.4,0,0.6,0.2,0.7,0.3l0.1,0.1
		c0.2,0.2,0.3,0.4,0.3,0.7v12c0,0.4-0.2,0.6-0.3,0.8c-0.1,0.1-0.4,0.3-0.8,0.3h-0.3H270.1z M355.3,340.3l8.9-26.8
		c5.8-1.2,11.8-2.1,17.9-2.5l-9.2,31.1l8.4,2.5l10.1-34c0.7,0,1.4,0,2,0c5.3,0,10.4,0.3,15.3,0.8l-8.6,32.3l8.5,2.3l8.9-33.4
		c6.1,1.1,11.9,2.5,17.3,4.3l-8.2,26.6l8.4,2.6l8-26.1c19.7,8.4,32,21,32,32.9v0.8c0,9.3-3.7,16.4-10.9,21.3
		c-6.9,4.7-16.7,7.2-28.4,7.2h-86.4c-11.7,0-21.5-2.5-28.4-7.2c-7.2-4.9-10.9-12.1-10.9-21.3v-0.8c0-9.5,8.6-20,23-28.1
		c6.3-3.5,13.3-6.4,20.8-8.7l-7.1,21.5L355.3,340.3z M249.8,348.7h-31.6v-86.1h31.6V348.7z M469.3,382.2
		c9.3-6.5,14.6-16.2,14.6-28.5v-0.8c0-12.9-9.7-25.9-26.7-35.7c-17.3-9.9-39.9-15.4-63.8-15.4c-19.3,0-37.7,3.7-52.9,9.9V272
		c0-2.1-1.2-4.3-3.4-8l-0.2-0.4c-0.6-1-1.2-2-1.6-2.8l-14.8-29.3l-0.2-0.4v-6.3h0.3c2.6,0,5.1-1.1,7-2.9c1.9-1.9,2.9-4.4,2.9-7v-12
		c0-2.6-1.1-5.2-2.9-7c-1.9-1.9-4.3-2.9-7-2.9h-51c-1.9,0-3.8,0.6-5.4,1.6H264l-1.3,1.3c-1.9,1.9-2.9,4.3-2.9,7v12
		c0,2.6,1,5.1,2.9,7c1.9,1.9,4.4,2.9,7,2.9h0.3v6.3l-11.5,22.8v-4.1c0-3.8-2.1-7.1-4-10l-0.3-0.5l-0.1-0.1l-23.8-42.2v-28.4
		c0-0.4,0-0.8-0.1-1.2c3.7-1,6.4-4.4,6.4-8.5v-9.2c0-4.9-3.9-8.8-8.8-8.8h-12.6L221.2,14H547l1.8,368.2H469.3z"/>
</g>
</svg>
